<svg xmlns="http://www.w3.org/2000/svg" xmlns:xlink="http://www.w3.org/1999/xlink" width="500" zoomAndPan="magnify" viewBox="0 0 375 374.999991" height="500" preserveAspectRatio="xMidYMid meet" version="1.0"><defs><clipPath id="2f826ec0e3"><path d="M 31.738281 48 L 361.738281 48 L 361.738281 166 L 31.738281 166 Z M 31.738281 48 " clip-rule="nonzero"/></clipPath><clipPath id="34b16892aa"><path d="M 221 193 L 374.890625 193 L 374.890625 292 L 221 292 Z M 221 193 " clip-rule="nonzero"/></clipPath><clipPath id="116c2a564d"><path d="M 18.640625 193 L 173 193 L 173 292 L 18.640625 292 Z M 18.640625 193 " clip-rule="nonzero"/></clipPath><clipPath id="68ba8fc54a"><path d="M 65 156.261719 L 329 156.261719 L 329 204 L 65 204 Z M 65 156.261719 " clip-rule="nonzero"/></clipPath><clipPath id="887fc33a7b"><path d="M 178 156.261719 L 193 156.261719 L 193 171 L 178 171 Z M 178 156.261719 " clip-rule="nonzero"/></clipPath><clipPath id="8122b66772"><path d="M 201 156.261719 L 216 156.261719 L 216 171 L 201 171 Z M 201 156.261719 " clip-rule="nonzero"/></clipPath></defs><g clip-path="url(#2f826ec0e3)"><path fill="#ffffff" d="M 31.6875 152.035156 C 40.664062 165.910156 59.195312 169.882812 73.074219 160.90625 C 115.496094 133.457031 196.753906 80.890625 196.753906 80.890625 C 196.753906 80.890625 278.011719 133.457031 320.433594 160.90625 C 334.3125 169.882812 352.839844 165.910156 361.820312 152.035156 C 361.820312 152.03125 361.820312 152.03125 361.820312 152.03125 C 361.820312 152.03125 204.882812 50.503906 204.882812 50.503906 C 199.933594 47.304688 193.570312 47.304688 188.625 50.503906 C 188.625 50.503906 31.6875 152.03125 31.6875 152.03125 C 31.6875 152.03125 31.6875 152.03125 31.6875 152.035156 Z M 31.6875 152.035156 " fill-opacity="1" fill-rule="evenodd"/></g><g clip-path="url(#34b16892aa)"><path fill="#ffffff" d="M 367.566406 199.402344 C 347.234375 210.070312 321.433594 206.957031 299.101562 205.609375 C 266.609375 201.574219 233.585938 220.460938 221.355469 250.742188 C 234.757812 226.6875 260.675781 210.300781 288.285156 211.359375 C 312.765625 213.535156 338.066406 218.128906 362.226562 210.925781 C 363.425781 210.519531 364.566406 210.125 365.703125 209.703125 C 363.039062 239.136719 349.6875 271.367188 319.480469 280.375 C 287.65625 290.328125 251.863281 286.367188 221.359375 272.875 C 263.632812 297.425781 335.851562 304.046875 362.003906 253.640625 C 371.800781 235.226562 374.925781 214.589844 374.820312 193.945312 C 374.820312 193.945312 367.566406 199.402344 367.566406 199.40625 Z M 367.566406 199.402344 " fill-opacity="1" fill-rule="nonzero"/></g><path fill="#ffffff" d="M 337.308594 236.066406 C 316.839844 248 292.929688 247.640625 269.742188 248.429688 C 245.996094 249.59375 220.792969 256.125 203.015625 272.589844 C 224.027344 262.1875 246.972656 258.007812 270.09375 257.023438 C 292.964844 256.246094 320.589844 253.929688 337.308594 236.066406 Z M 337.308594 236.066406 " fill-opacity="1" fill-rule="nonzero"/><g clip-path="url(#116c2a564d)"><path fill="#ffffff" d="M 26.070312 199.402344 C 46.402344 210.070312 72.203125 206.957031 94.535156 205.609375 C 127.023438 201.574219 160.050781 220.460938 172.277344 250.742188 C 158.875 226.6875 132.960938 210.300781 105.351562 211.359375 C 80.871094 213.535156 55.570312 218.128906 31.40625 210.925781 C 30.210938 210.519531 29.070312 210.125 27.933594 209.703125 C 30.597656 239.136719 43.949219 271.367188 74.15625 280.375 C 105.980469 290.328125 141.773438 286.367188 172.277344 272.875 C 130.003906 297.425781 57.785156 304.046875 31.632812 253.640625 C 21.835938 235.226562 18.710938 214.589844 18.8125 193.945312 C 18.8125 193.945312 26.070312 199.402344 26.070312 199.402344 Z M 26.070312 199.402344 " fill-opacity="1" fill-rule="nonzero"/></g><path fill="#ffffff" d="M 56.328125 236.066406 C 76.796875 248 100.707031 247.640625 123.894531 248.429688 C 147.640625 249.59375 172.84375 256.125 190.621094 272.589844 C 169.609375 262.1875 146.664062 258.007812 123.542969 257.023438 C 100.671875 256.246094 73.042969 253.929688 56.328125 236.066406 Z M 56.328125 236.066406 " fill-opacity="1" fill-rule="nonzero"/><g clip-path="url(#68ba8fc54a)"><path fill="#ffffff" d="M 314.03125 202.285156 C 318.753906 202.597656 323.550781 202.929688 328.433594 203.183594 L 328.433594 147.085938 L 212.660156 87.617188 L 196.816406 79.550781 L 180.976562 87.617188 L 65.203125 147.085938 L 65.203125 203.183594 C 70.082031 202.929688 74.882812 202.597656 79.601562 202.285156 L 79.601562 155.871094 L 196.816406 95.679688 L 314.03125 155.871094 Z M 314.03125 202.285156 " fill-opacity="1" fill-rule="nonzero"/></g><g clip-path="url(#887fc33a7b)"><path fill="#ffffff" d="M 178.113281 155.871094 L 192.515625 155.871094 L 192.515625 170.269531 L 178.113281 170.269531 Z M 178.113281 155.871094 " fill-opacity="1" fill-rule="nonzero"/></g><g clip-path="url(#8122b66772)"><path fill="#ffffff" d="M 201.121094 155.871094 L 215.523438 155.871094 L 215.523438 170.269531 L 201.121094 170.269531 Z M 201.121094 155.871094 " fill-opacity="1" fill-rule="nonzero"/></g><path fill="#ffffff" d="M 178.113281 177.46875 L 192.515625 177.46875 L 192.515625 191.871094 L 178.113281 191.871094 Z M 178.113281 177.46875 " fill-opacity="1" fill-rule="nonzero"/><path fill="#ffffff" d="M 201.121094 177.46875 L 215.523438 177.46875 L 215.523438 191.871094 L 201.121094 191.871094 Z M 201.121094 177.46875 " fill-opacity="1" fill-rule="nonzero"/></svg>